<svg xmlns = "http://www.w3.org/2000/svg" width = "48" height = "48" viewBox = "0 0 48 48" fill = "none" > < mask id = "path-1-inside-1_3090_250" fill = "white" > < path fillRule = "evenodd" d = "M48 24L47.9992 25.114L47.9968 25.7682L47.9928 26.3169L47.9872 26.8065L47.98 27.2564L47.9712 27.6768L47.9608 28.0742L47.9488 28.4527L47.9352 28.8156L47.92 29.1649L47.9032 29.5024L47.8848 29.8296L47.8648 30.1474L47.8432 30.4568L47.82 30.7585L47.7952 31.0532L47.7688 31.3414L47.7408 31.6236L47.7112 31.9002L47.68 32.1714L47.6472 32.4377L47.6128 32.6993L47.5768 32.9565L47.5392 33.2094L47.5 33.4583L47.4592 33.7034L47.4168 33.9447L47.3728 34.1825L47.3272 34.4169L47.28 34.648L47.2311 34.8759L47.1807 35.1008L47.1287 35.3226L47.0751 35.5415L47.0199 35.7577L46.9631 35.971L46.9046 36.1817L46.8446 36.3898L46.783 36.5954L46.7197 36.7984L46.6549 36.999L46.5885 37.1972L46.5204 37.393L46.4508 37.5866L46.3795 37.7778L46.3066 37.9669L46.2321 38.1537L46.156 38.3384L46.0783 38.521L45.999 38.7014L45.9181 38.8798L45.8355 39.0561L45.7514 39.2304L45.6656 39.4027L45.5782 39.573L45.4892 39.7414L45.3986 39.9078L45.3063 40.0723L45.2125 40.2349L45.117 40.3956L45.0198 40.5544L44.9211 40.7114L44.8207 40.8665L44.7187 41.0198L44.615 41.1713L44.5097 41.321L44.4028 41.4689L44.2942 41.615L44.184 41.7593L44.0721 41.9019L43.9585 42.0427L43.8434 42.1818L43.7265 42.3191L43.608 42.4547L43.4878 42.5886L43.3659 42.7208L43.2424 42.8513L43.1171 42.98L42.9902 43.1071L42.8616 43.2324L42.7313 43.3561L42.5992 43.4781L42.4655 43.5985L42.33 43.7171L42.1928 43.8341L42.0539 43.9494L41.9132 44.0631L41.7708 44.1751L41.6266 44.2855L41.4806 44.3942L41.3329 44.5013L41.1833 44.6067L41.032 44.7105L40.8788 44.8126L40.7238 44.9132L40.567 45.012L40.4083 45.1093L40.2477 45.2049L40.0853 45.2989L39.921 45.3913L39.7547 45.4821L39.5865 45.5712L39.4163 45.6587L39.2442 45.7446L39.07 45.8289L38.8939 45.9116L38.7157 45.9926L38.5354 46.0721L38.353 46.1499L38.1685 46.2261L37.9818 46.3007L37.793 46.3737L37.6019 46.4451L37.4085 46.5149L37.2129 46.5831L37.0149 46.6497L36.8145 46.7146L36.6116 46.778L36.4063 46.8398L36.1984 46.8999L35.9879 46.9585L35.7748 47.0154L35.5589 47.0708L35.3401 47.1245L35.1185 47.1767L34.8939 47.2272L34.6663 47.2761L34.4355 47.3235L34.2013 47.3692L33.9638 47.4133L33.7228 47.4559L33.478 47.4968L33.2294 47.5361L32.9768 47.5739L32.72 47.61L32.4587 47.6445L32.1928 47.6774L31.922 47.7088L31.6458 47.7385L31.3641 47.7666L31.0764 47.7932L30.7822 47.8181L30.4811 47.8414L30.1723 47.8631L29.8552 47.8833L29.5289 47.9018L29.1922 47.9187L28.8439 47.9341L28.4822 47.9478L28.105 47.9599L27.7092 47.9704L27.2908 47.9794L26.8437 47.9867L26.3577 47.9924L25.8149 47.9965L25.1723 47.9991L24.2062 48L22.946 47.9993L22.279 47.9971L21.7242 47.9932L21.2308 47.9877L20.7782 47.9806L20.3557 47.972L19.9567 47.9617L19.5768 47.9498L19.2128 47.9364L18.8625 47.9213L18.524 47.9046L18.1961 47.8863L17.8776 47.8665L17.5675 47.845L17.2652 47.8219L16.97 47.7972L16.6813 47.771L16.3986 47.7431L16.1216 47.7136L15.85 47.6825L15.5833 47.6499L15.3213 47.6156L15.0638 47.5797L14.8105 47.5422L14.5613 47.5032L14.316 47.4625L14.0743 47.4202L13.8362 47.3763L13.6016 47.3309L13.3702 47.2838L13.1421 47.2351L12.917 47.1848L12.6949 47.1329L12.4758 47.0794L12.2594 47.0243L12.0458 46.9677L11.8349 46.9094L11.6266 46.8495L11.4209 46.788L11.2177 46.7248L11.0169 46.6601L10.8185 46.5938L10.6225 46.5259L10.4287 46.4564L10.2373 46.3852L10.0481 46.3125L9.86106 46.2381L9.67621 46.1622L9.49349 46.0846L9.31288 46.0054L9.13434 45.9246L8.95786 45.8422L8.7834 45.7582L8.61094 45.6725L8.44047 45.5853L8.27195 45.4964L8.10538 45.4059L7.94073 45.3138L7.77798 45.22L7.61713 45.1246L7.45814 45.0276L7.30102 44.929L7.14573 44.8288L6.99228 44.7269L6.84065 44.6233L6.69082 44.5182L6.54279 44.4114L6.39654 44.3029L6.25206 44.1928L6.10935 44.0811L5.96839 43.9677L5.82918 43.8526L5.69171 43.7359L5.55597 43.6175L5.42195 43.4974L5.28965 43.3757L5.15905 43.2523L5.03016 43.1272L4.90296 43.0004L4.77746 42.8719L4.65364 42.7417L4.53151 42.6098L4.41104 42.4762L4.29226 42.3409L4.17513 42.2038L4.05967 42.065L3.94587 41.9245L3.83372 41.7822L3.72323 41.6381L3.61438 41.4923L3.50718 41.3447L3.40162 41.1953L3.2977 41.0441L3.19542 40.8911L3.09477 40.7362L2.99576 40.5795L2.89837 40.421L2.80261 40.2606L2.70848 40.0983L2.61597 39.9341L2.52508 39.768L2.43582 39.5999L2.34817 39.4299L2.26214 39.258L2.17773 39.084L2.09493 38.908L2.01375 38.7299L1.93418 38.5498L1.85622 38.3676L1.77987 38.1833L1.70513 37.9968L1.632 37.8081L1.56047 37.6172L1.49056 37.424L1.42225 37.2285L1.35555 37.0307L1.29045 36.8305L1.22696 36.6279L1.16507 36.4227L1.10479 36.215L1.04611 36.0048L0.989035 35.7918L0.933561 35.5761L0.879691 35.3577L0.827422 35.1363L0.776755 34.9119L0.727691 34.6845L0.680227 34.454L0.634365 34.2201L0.590105 33.9829L0.547445 33.7421L0.506386 33.4976L0.466928 33.2494L0.42907 32.9971L0.392813 32.7406L0.358157 32.4797L0.325101 32.2142L0.293645 31.9437L0.263789 31.668L0.235534 31.3868L0.208878 31.0995L0.183823 30.8059L0.160368 30.5053L0.138513 30.1972L0.118258 29.8808L0.0996032 29.5552L0.0825483 29.2194L0.0670935 28.8721L0.0532386 28.5115L0.0409838 28.1356L0.030329 27.7415L0.0212741 27.3251L0.0138193 26.8805L0.00796448 26.3982L0.00370965 25.8609L0.00105483 25.2293L0 24.3273L0.000545176 23.0077L0.00269035 22.3269L0.00643553 21.7658L0.0117807 21.2684L0.0187259 20.813L0.0272711 20.3884L0.0374163 19.9877L0.0491614 19.6064L0.0625066 19.2412L0.0774518 18.8899L0.0939971 18.5506L0.112142 18.2219L0.131888 17.9026L0.153233 17.5919L0.176178 17.289L0.200724 16.9932L0.226869 16.704L0.254615 16.4209L0.283961 16.1435L0.314907 15.8714L0.347454 15.6043L0.381601 15.342L0.417348 15.0841L0.454695 14.8305L0.493644 14.581L0.534193 14.3353L0.576343 14.0934L0.620093 13.8551L0.665445 13.6201L0.712398 13.3885L0.760953 13.1601L0.811109 12.9348L0.862868 12.7125L0.916228 12.4931L0.971191 12.2765L1.02776 12.0627L1.08593 11.8516L1.1457 11.6431L1.20707 11.4372L1.27005 11.2337L1.33464 11.0328L1.40083 10.8342L1.46863 10.638L1.53803 10.4441L1.60904 10.2524L1.68166 10.063L1.75588 9.87585L1.83172 9.69083L1.90917 9.50794L1.98823 9.32716L2.0689 9.14846L2.15118 8.97182L2.23508 8.7972L2.32059 8.62458L2.40772 8.45395L2.49647 8.28528L2.58684 8.11855L2.67884 7.95375L2.77245 7.79085L2.86769 7.62985L2.96456 7.47071L3.06305 7.31344L3.16318 7.15801L3.26494 7.00441L3.36834 6.85263L3.47338 6.70266L3.58006 6.55449L3.68838 6.4081L3.79835 6.26348L3.90997 6.12063L4.02324 5.97953L4.13817 5.84018L4.25477 5.70257L4.37303 5.56669L4.49295 5.43254L4.61456 5.3001L4.73784 5.16937L4.86281 5.04034L4.98946 4.91301L5.11781 4.78737L5.24786 4.66342L5.37962 4.54115L5.51309 4.42055L5.64828 4.30163L5.7852 4.18437L5.92386 4.06878L6.06426 3.95485L6.20641 3.84257L6.35032 3.73194L6.49601 3.62297L6.64347 3.51563L6.79273 3.40994L6.94378 3.30589L7.09666 3.20348L7.25135 3.1027L7.40789 3.00356L7.56628 2.90604L7.72654 2.81015L7.88868 2.71589L8.05273 2.62325L8.21868 2.53224L8.38658 2.44284L8.55643 2.35507L8.72825 2.26891L8.90207 2.18437L9.0779 2.10144L9.25578 2.02013L9.43573 1.94043L9.61778 1.86234L9.80195 1.78586L9.98827 1.711L10.1768 1.63774L10.3675 1.56609L10.5605 1.49604L10.7558 1.42761L10.9534 1.36078L11.1534 1.29555L11.3559 1.23193L11.5608 1.16992L11.7683 1.10951L11.9784 1.0507L12.1911 0.993496L12.4066 0.937895L12.6248 0.883897L12.846 0.831501L13.0701 0.780707L13.2972 0.731514L13.5275 0.683923L13.7611 0.637934L13.9981 0.593546L14.2386 0.550758L14.4827 0.509572L14.7307 0.469986L14.9827 0.432001L15.2388 0.395617L15.4993 0.360833L15.7645 0.327649L16.0345 0.296066L16.3098 0.266083L16.5906 0.2377L16.8773 0.210917L17.1704 0.185735L17.4704 0.162152L17.7779 0.14017L18.0937 0.119787L18.4185 0.101005L18.7534 0.0838225L19.0998 0.0682402L19.4592 0.054258L19.8338 0.0418757L20.2263 0.0310935L20.6408 0.0219112L21.0828 0.014329L21.5617 0.00834672L22.0936 0.00396448L22.715 0.00118224L23.5711 0L24.9286 0.000417764L25.6245 0.00243553L26.1923 0.0060533L26.6937 0.0112711L27.1519 0.0180888L27.5787 0.0265066L27.9811 0.0365244L28.3638 0.0481422L28.7302 0.06136L29.0826 0.0761778L29.4228 0.0925956L29.7523 0.110613L30.0723 0.130231L30.3836 0.151449L30.6871 0.174267L30.9834 0.198685L31.2731 0.224704L31.5567 0.252322L31.8346 0.28154L32.1071 0.312359L32.3746 0.344778L32.6373 0.378798L32.8955 0.414417L33.1494 0.451638L33.3992 0.490458L33.6452 0.53088L33.8874 0.572902L34.1261 0.616526L34.3612 0.66175L34.5931 0.708576L34.8218 0.757003L35.0473 0.807032L35.2699 0.858662L35.4895 0.911895L35.7063 0.96673L35.9203 1.02317L36.1316 1.08121L36.3403 1.14085L36.5465 1.2021L36.7501 1.26496L36.9513 1.32941L37.15 1.39548L37.3465 1.46314L37.5405 1.53242L37.7323 1.6033L37.9219 1.67579L38.1093 1.74989L38.2945 1.8256L38.4775 1.90292L38.6585 1.98185L38.8373 2.06239L39.0142 2.14454L39.1889 2.22831L39.3617 2.3137L39.5325 2.4007L39.7013 2.48932L39.8682 2.57956L40.0332 2.67143L40.1962 2.76491L40.3574 2.86002L40.5166 2.95676L40.6741 3.05513L40.8296 3.15513L40.9834 3.25676L41.1353 3.36002L41.2854 3.46493L41.4337 3.57148L41.5803 3.67967L41.725 3.78951L41.868 3.901L42.0093 4.01414L42.1487 4.12894L42.2865 4.2454L42.4225 4.36352L42.5568 4.48332L42.6894 4.60479L42.8202 4.72794L42.9494 4.85277L43.0769 4.97929L43.2026 5.10751L43.3267 5.23742L43.4491 5.36904L43.5699 5.50238L43.6889 5.63743L43.8063 5.77422L43.922 5.91273L44.0361 6.05299L44.1485 6.19501L44.2593 6.33878L44.3684 6.48432L44.4758 6.63164L44.5817 6.78075L44.6858 6.93167L44.7884 7.08439L44.8893 7.23895L44.9886 7.39534L45.0862 7.55358L45.1822 7.71369L45.2766 7.87568L45.3694 8.03957L45.4605 8.20538L45.5501 8.37312L45.638 8.54281L45.7242 8.71447L45.8089 8.88813L45.892 9.06381L45.9734 9.24152L46.0532 9.42131L46.1315 9.60318L46.2081 9.78718L46.2831 9.97333L46.3564 10.1617L46.4282 10.3522L46.4984 10.545L46.567 10.7401L46.6339 10.9376L46.6993 11.1374L46.763 11.3397L46.8252 11.5444L46.8857 11.7517L46.9446 11.9615L47.002 12.174L47.0577 12.3893L47.1118 12.6073L47.1643 12.8282L47.2153 13.0521L47.2646 13.279L47.3123 13.5091L47.3584 13.7424L47.4029 13.9791L47.4459 14.2193L47.4872 14.4631L47.5269 14.7108L47.565 14.9624L47.6015 15.2182L47.6364 15.4784L47.6697 15.7432L47.7014 16.0128L47.7315 16.2877L47.7601 16.568L47.787 16.8543L47.8123 17.1468L47.836 17.4463L47.8581 17.7532L47.8786 18.0682L47.8975 18.3923L47.9148 18.7264L47.9305 19.0718L47.9446 19.4301L47.9572 19.8033L47.9681 20.1943L47.9774 20.6068L47.9851 21.0464L47.9912 21.5219L47.9957 22.0487L47.9986 22.6605L47.9999 23.4804L48 24Z" / > < / mask > < path fillRule = "evenodd" d = "M48 24L47.9992 25.114L47.9968 25.7682L47.9928 26.3169L47.9872 26.8065L47.98 27.2564L47.9712 27.6768L47.9608 28.0742L47.9488 28.4527L47.9352 28.8156L47.92 29.1649L47.9032 29.5024L47.8848 29.8296L47.8648 30.1474L47.8432 30.4568L47.82 30.7585L47.7952 31.0532L47.7688 31.3414L47.7408 31.6236L47.7112 31.9002L47.68 32.1714L47.6472 32.4377L47.6128 32.6993L47.5768 32.9565L47.5392 33.2094L47.5 33.4583L47.4592 33.7034L47.4168 33.9447L47.3728 34.1825L47.3272 34.4169L47.28 34.648L47.2311 34.8759L47.1807 35.1008L47.1287 35.3226L47.0751 35.5415L47.0199 35.7577L46.9631 35.971L46.9046 36.1817L46.8446 36.3898L46.783 36.5954L46.7197 36.7984L46.6549 36.999L46.5885 37.1972L46.5204 37.393L46.4508 37.5866L46.3795 37.7778L46.3066 37.9669L46.2321 38.1537L46.156 38.3384L46.0783 38.521L45.999 38.7014L45.9181 38.8798L45.8355 39.0561L45.7514 39.2304L45.6656 39.4027L45.5782 39.573L45.4892 39.7414L45.3986 39.9078L45.3063 40.0723L45.2125 40.2349L45.117 40.3956L45.0198 40.5544L44.9211 40.7114L44.8207 40.8665L44.7187 41.0198L44.615 41.1713L44.5097 41.321L44.4028 41.4689L44.2942 41.615L44.184 41.7593L44.0721 41.9019L43.9585 42.0427L43.8434 42.1818L43.7265 42.3191L43.608 42.4547L43.4878 42.5886L43.3659 42.7208L43.2424 42.8513L43.1171 42.98L42.9902 43.1071L42.8616 43.2324L42.7313 43.3561L42.5992 43.4781L42.4655 43.5985L42.33 43.7171L42.1928 43.8341L42.0539 43.9494L41.9132 44.0631L41.7708 44.1751L41.6266 44.2855L41.4806 44.3942L41.3329 44.5013L41.1833 44.6067L41.032 44.7105L40.8788 44.8126L40.7238 44.9132L40.567 45.012L40.4083 45.1093L40.2477 45.2049L40.0853 45.2989L39.921 45.3913L39.7547 45.4821L39.5865 45.5712L39.4163 45.6587L39.2442 45.7446L39.07 45.8289L38.8939 45.9116L38.7157 45.9926L38.5354 46.0721L38.353 46.1499L38.1685 46.2261L37.9818 46.3007L37.793 46.3737L37.6019 46.4451L37.4085 46.5149L37.2129 46.5831L37.0149 46.6497L36.8145 46.7146L36.6116 46.778L36.4063 46.8398L36.1984 46.8999L35.9879 46.9585L35.7748 47.0154L35.5589 47.0708L35.3401 47.1245L35.1185 47.1767L34.8939 47.2272L34.6663 47.2761L34.4355 47.3235L34.2013 47.3692L33.9638 47.4133L33.7228 47.4559L33.478 47.4968L33.2294 47.5361L32.9768 47.5739L32.72 47.61L32.4587 47.6445L32.1928 47.6774L31.922 47.7088L31.6458 47.7385L31.3641 47.7666L31.0764 47.7932L30.7822 47.8181L30.4811 47.8414L30.1723 47.8631L29.8552 47.8833L29.5289 47.9018L29.1922 47.9187L28.8439 47.9341L28.4822 47.9478L28.105 47.9599L27.7092 47.9704L27.2908 47.9794L26.8437 47.9867L26.3577 47.9924L25.8149 47.9965L25.1723 47.9991L24.2062 48L22.946 47.9993L22.279 47.9971L21.7242 47.9932L21.2308 47.9877L20.7782 47.9806L20.3557 47.972L19.9567 47.9617L19.5768 47.9498L19.2128 47.9364L18.8625 47.9213L18.524 47.9046L18.1961 47.8863L17.8776 47.8665L17.5675 47.845L17.2652 47.8219L16.97 47.7972L16.6813 47.771L16.3986 47.7431L16.1216 47.7136L15.85 47.6825L15.5833 47.6499L15.3213 47.6156L15.0638 47.5797L14.8105 47.5422L14.5613 47.5032L14.316 47.4625L14.0743 47.4202L13.8362 47.3763L13.6016 47.3309L13.3702 47.2838L13.1421 47.2351L12.917 47.1848L12.6949 47.1329L12.4758 47.0794L12.2594 47.0243L12.0458 46.9677L11.8349 46.9094L11.6266 46.8495L11.4209 46.788L11.2177 46.7248L11.0169 46.6601L10.8185 46.5938L10.6225 46.5259L10.4287 46.4564L10.2373 46.3852L10.0481 46.3125L9.86106 46.2381L9.67621 46.1622L9.49349 46.0846L9.31288 46.0054L9.13434 45.9246L8.95786 45.8422L8.7834 45.7582L8.61094 45.6725L8.44047 45.5853L8.27195 45.4964L8.10538 45.4059L7.94073 45.3138L7.77798 45.22L7.61713 45.1246L7.45814 45.0276L7.30102 44.929L7.14573 44.8288L6.99228 44.7269L6.84065 44.6233L6.69082 44.5182L6.54279 44.4114L6.39654 44.3029L6.25206 44.1928L6.10935 44.0811L5.96839 43.9677L5.82918 43.8526L5.69171 43.7359L5.55597 43.6175L5.42195 43.4974L5.28965 43.3757L5.15905 43.2523L5.03016 43.1272L4.90296 43.0004L4.77746 42.8719L4.65364 42.7417L4.53151 42.6098L4.41104 42.4762L4.29226 42.3409L4.17513 42.2038L4.05967 42.065L3.94587 41.9245L3.83372 41.7822L3.72323 41.6381L3.61438 41.4923L3.50718 41.3447L3.40162 41.1953L3.2977 41.0441L3.19542 40.8911L3.09477 40.7362L2.99576 40.5795L2.89837 40.421L2.80261 40.2606L2.70848 40.0983L2.61597 39.9341L2.52508 39.768L2.43582 39.5999L2.34817 39.4299L2.26214 39.258L2.17773 39.084L2.09493 38.908L2.01375 38.7299L1.93418 38.5498L1.85622 38.3676L1.77987 38.1833L1.70513 37.9968L1.632 37.8081L1.56047 37.6172L1.49056 37.424L1.42225 37.2285L1.35555 37.0307L1.29045 36.8305L1.22696 36.6279L1.16507 36.4227L1.10479 36.215L1.04611 36.0048L0.989035 35.7918L0.933561 35.5761L0.879691 35.3577L0.827422 35.1363L0.776755 34.9119L0.727691 34.6845L0.680227 34.454L0.634365 34.2201L0.590105 33.9829L0.547445 33.7421L0.506386 33.4976L0.466928 33.2494L0.42907 32.9971L0.392813 32.7406L0.358157 32.4797L0.325101 32.2142L0.293645 31.9437L0.263789 31.668L0.235534 31.3868L0.208878 31.0995L0.183823 30.8059L0.160368 30.5053L0.138513 30.1972L0.118258 29.8808L0.0996032 29.5552L0.0825483 29.2194L0.0670935 28.8721L0.0532386 28.5115L0.0409838 28.1356L0.030329 27.7415L0.0212741 27.3251L0.0138193 26.8805L0.00796448 26.3982L0.00370965 25.8609L0.00105483 25.2293L0 24.3273L0.000545176 23.0077L0.00269035 22.3269L0.00643553 21.7658L0.0117807 21.2684L0.0187259 20.813L0.0272711 20.3884L0.0374163 19.9877L0.0491614 19.6064L0.0625066 19.2412L0.0774518 18.8899L0.0939971 18.5506L0.112142 18.2219L0.131888 17.9026L0.153233 17.5919L0.176178 17.289L0.200724 16.9932L0.226869 16.704L0.254615 16.4209L0.283961 16.1435L0.314907 15.8714L0.347454 15.6043L0.381601 15.342L0.417348 15.0841L0.454695 14.8305L0.493644 14.581L0.534193 14.3353L0.576343 14.0934L0.620093 13.8551L0.665445 13.6201L0.712398 13.3885L0.760953 13.1601L0.811109 12.9348L0.862868 12.7125L0.916228 12.4931L0.971191 12.2765L1.02776 12.0627L1.08593 11.8516L1.1457 11.6431L1.20707 11.4372L1.27005 11.2337L1.33464 11.0328L1.40083 10.8342L1.46863 10.638L1.53803 10.4441L1.60904 10.2524L1.68166 10.063L1.75588 9.87585L1.83172 9.69083L1.90917 9.50794L1.98823 9.32716L2.0689 9.14846L2.15118 8.97182L2.23508 8.7972L2.32059 8.62458L2.40772 8.45395L2.49647 8.28528L2.58684 8.11855L2.67884 7.95375L2.77245 7.79085L2.86769 7.62985L2.96456 7.47071L3.06305 7.31344L3.16318 7.15801L3.26494 7.00441L3.36834 6.85263L3.47338 6.70266L3.58006 6.55449L3.68838 6.4081L3.79835 6.26348L3.90997 6.12063L4.02324 5.97953L4.13817 5.84018L4.25477 5.70257L4.37303 5.56669L4.49295 5.43254L4.61456 5.3001L4.73784 5.16937L4.86281 5.04034L4.98946 4.91301L5.11781 4.78737L5.24786 4.66342L5.37962 4.54115L5.51309 4.42055L5.64828 4.30163L5.7852 4.18437L5.92386 4.06878L6.06426 3.95485L6.20641 3.84257L6.35032 3.73194L6.49601 3.62297L6.64347 3.51563L6.79273 3.40994L6.94378 3.30589L7.09666 3.20348L7.25135 3.1027L7.40789 3.00356L7.56628 2.90604L7.72654 2.81015L7.88868 2.71589L8.05273 2.62325L8.21868 2.53224L8.38658 2.44284L8.55643 2.35507L8.72825 2.26891L8.90207 2.18437L9.0779 2.10144L9.25578 2.02013L9.43573 1.94043L9.61778 1.86234L9.80195 1.78586L9.98827 1.711L10.1768 1.63774L10.3675 1.56609L10.5605 1.49604L10.7558 1.42761L10.9534 1.36078L11.1534 1.29555L11.3559 1.23193L11.5608 1.16992L11.7683 1.10951L11.9784 1.0507L12.1911 0.993496L12.4066 0.937895L12.6248 0.883897L12.846 0.831501L13.0701 0.780707L13.2972 0.731514L13.5275 0.683923L13.7611 0.637934L13.9981 0.593546L14.2386 0.550758L14.4827 0.509572L14.7307 0.469986L14.9827 0.432001L15.2388 0.395617L15.4993 0.360833L15.7645 0.327649L16.0345 0.296066L16.3098 0.266083L16.5906 0.2377L16.8773 0.210917L17.1704 0.185735L17.4704 0.162152L17.7779 0.14017L18.0937 0.119787L18.4185 0.101005L18.7534 0.0838225L19.0998 0.0682402L19.4592 0.054258L19.8338 0.0418757L20.2263 0.0310935L20.6408 0.0219112L21.0828 0.014329L21.5617 0.00834672L22.0936 0.00396448L22.715 0.00118224L23.5711 0L24.9286 0.000417764L25.6245 0.00243553L26.1923 0.0060533L26.6937 0.0112711L27.1519 0.0180888L27.5787 0.0265066L27.9811 0.0365244L28.3638 0.0481422L28.7302 0.06136L29.0826 0.0761778L29.4228 0.0925956L29.7523 0.110613L30.0723 0.130231L30.3836 0.151449L30.6871 0.174267L30.9834 0.198685L31.2731 0.224704L31.5567 0.252322L31.8346 0.28154L32.1071 0.312359L32.3746 0.344778L32.6373 0.378798L32.8955 0.414417L33.1494 0.451638L33.3992 0.490458L33.6452 0.53088L33.8874 0.572902L34.1261 0.616526L34.3612 0.66175L34.5931 0.708576L34.8218 0.757003L35.0473 0.807032L35.2699 0.858662L35.4895 0.911895L35.7063 0.96673L35.9203 1.02317L36.1316 1.08121L36.3403 1.14085L36.5465 1.2021L36.7501 1.26496L36.9513 1.32941L37.15 1.39548L37.3465 1.46314L37.5405 1.53242L37.7323 1.6033L37.9219 1.67579L38.1093 1.74989L38.2945 1.8256L38.4775 1.90292L38.6585 1.98185L38.8373 2.06239L39.0142 2.14454L39.1889 2.22831L39.3617 2.3137L39.5325 2.4007L39.7013 2.48932L39.8682 2.57956L40.0332 2.67143L40.1962 2.76491L40.3574 2.86002L40.5166 2.95676L40.6741 3.05513L40.8296 3.15513L40.9834 3.25676L41.1353 3.36002L41.2854 3.46493L41.4337 3.57148L41.5803 3.67967L41.725 3.78951L41.868 3.901L42.0093 4.01414L42.1487 4.12894L42.2865 4.2454L42.4225 4.36352L42.5568 4.48332L42.6894 4.60479L42.8202 4.72794L42.9494 4.85277L43.0769 4.97929L43.2026 5.10751L43.3267 5.23742L43.4491 5.36904L43.5699 5.50238L43.6889 5.63743L43.8063 5.77422L43.922 5.91273L44.0361 6.05299L44.1485 6.19501L44.2593 6.33878L44.3684 6.48432L44.4758 6.63164L44.5817 6.78075L44.6858 6.93167L44.7884 7.08439L44.8893 7.23895L44.9886 7.39534L45.0862 7.55358L45.1822 7.71369L45.2766 7.87568L45.3694 8.03957L45.4605 8.20538L45.5501 8.37312L45.638 8.54281L45.7242 8.71447L45.8089 8.88813L45.892 9.06381L45.9734 9.24152L46.0532 9.42131L46.1315 9.60318L46.2081 9.78718L46.2831 9.97333L46.3564 10.1617L46.4282 10.3522L46.4984 10.545L46.567 10.7401L46.6339 10.9376L46.6993 11.1374L46.763 11.3397L46.8252 11.5444L46.8857 11.7517L46.9446 11.9615L47.002 12.174L47.0577 12.3893L47.1118 12.6073L47.1643 12.8282L47.2153 13.0521L47.2646 13.279L47.3123 13.5091L47.3584 13.7424L47.4029 13.9791L47.4459 14.2193L47.4872 14.4631L47.5269 14.7108L47.565 14.9624L47.6015 15.2182L47.6364 15.4784L47.6697 15.7432L47.7014 16.0128L47.7315 16.2877L47.7601 16.568L47.787 16.8543L47.8123 17.1468L47.836 17.4463L47.8581 17.7532L47.8786 18.0682L47.8975 18.3923L47.9148 18.7264L47.9305 19.0718L47.9446 19.4301L47.9572 19.8033L47.9681 20.1943L47.9774 20.6068L47.9851 21.0464L47.9912 21.5219L47.9957 22.0487L47.9986 22.6605L47.9999 23.4804L48 24Z" stroke = "#1890FF" strokeWidth = "2" mask = "url(#path-1-inside-1_3090_250)" / > < / svg > < / div > < div className = "icon-2" > < svg xmlns = "http://www.w3.org/2000/svg" width = "21" height = "25" viewBox = "0 0 21 25" fill = "none" > < path d = "M19.7975 0H7.16763C6.91694 0 6.68472 0.104492 6.52163 0.267188C6.52134 0.26748 6.521 0.267725 6.5207 0.268018L0.55708 6.23179C0.556787 6.23208 0.556543 6.23237 0.55625 6.23272C0.383154 6.4062 0.289062 6.64453 0.289062 6.87871V24.0854C0.289062 24.5905 0.698584 25 1.20371 25H19.7976C20.3027 25 20.7122 24.5905 20.7122 24.0854V0.914648C20.7122 0.409521 20.3026 0 19.7975 0ZM6.61646 9.76943H14.3846C14.8897 9.76943 15.2993 10.179 15.2993 10.6841C15.2993 11.1892 14.8897 11.5987 14.3846 11.5987H6.61646C6.11133 11.5987 5.70181 11.1892 5.70181 10.6841C5.70181 10.179 6.11133 9.76943 6.61646 9.76943ZM6.25298 3.12275V5.96401H3.41172L6.25298 3.12275ZM15.8411 19.3801H5.16006C4.65493 19.3801 4.24541 18.9706 4.24541 18.4654C4.24541 17.9603 4.65493 17.5508 5.16006 17.5508H15.841C16.3461 17.5508 16.7557 17.9603 16.7557 18.4654C16.7557 18.9706 16.3461 19.3801 15.8411 19.3801ZM15.8411 16.1765H5.16006C4.65493 16.1765 4.24541 15.767 4.24541 15.2619C4.24541 14.7567 4.65493 14.3472 5.16006 14.3472H15.841C16.3461 14.3472 16.7557 14.7567 16.7557 15.2619C16.7557 15.767 16.3461 16.1765 15.8411 16.1765Z" fill = "#1890FF" / > </svg>